<?xml version="1.0" encoding="UTF-8"?>
<svg id="Layer_2" xmlns="http://www.w3.org/2000/svg" version="1.1" viewBox="0 0 137.21 54.84">
  <!-- Generator: Adobe Illustrator 29.8.4, SVG Export Plug-In . SVG Version: 2.1.1 Build 6)  -->
  <defs>
    <style>
      .st0 {
        fill: #fff;
      }

      .st1 {
        fill: #df2449;
      }
    </style>
  </defs>
  <g id="Capa_1">
    <g>
      <g>
        <g>
          <polygon class="st1" points="33.59 0 33.59 7.47 11.79 7.47 11.79 0 8.23 0 8.23 7.47 8.23 11.04 8.23 39.07 11.79 39.07 11.79 11.04 33.59 11.04 33.59 54.84 37.15 54.84 37.15 11.04 37.15 7.47 37.15 0 33.59 0"/>
          <polygon class="st1" points="28.93 43.06 28.93 46.62 28.93 54.84 25.36 54.84 25.36 46.62 3.56 46.62 3.56 54.84 0 54.84 0 46.62 0 43.06 0 0 3.56 0 3.56 43.06 25.36 43.06 28.93 43.06"/>
          <polygon class="st1" points="28.93 32.01 25.36 32.01 25.36 35.51 19.39 35.51 19.39 18.1 25.36 18.1 25.36 21.52 28.93 21.52 28.93 14.54 28.79 14.54 25.36 14.54 15.83 14.54 15.83 17.17 15.83 18.1 15.83 35.51 15.83 39.07 19.39 39.07 28.93 39.07 28.93 32.01"/>
        </g>
        <path class="st1" d="M39.32,1.68c0-.95.75-1.68,1.7-1.68s1.7.73,1.7,1.68-.74,1.67-1.7,1.67-1.7-.73-1.7-1.67ZM42.42,1.68c0-.8-.6-1.41-1.39-1.41s-1.39.61-1.39,1.41.6,1.4,1.39,1.4,1.39-.61,1.39-1.4ZM40.39,1.96v-.58c0-.29,0-.45-.02-.65h.64c.48,0,.74.17.74.49,0,.23-.17.41-.46.46l.75.93h-.52l-.62-.86h-.1v.21c0,.28,0,.45.02.65h-.45c0-.2.02-.37.02-.65ZM41.34,1.22c0-.21-.15-.35-.37-.35h-.16v.72h.16c.23,0,.37-.16.37-.37Z"/>
      </g>
      <g>
        <path class="st0" d="M53.48,13.54c-.51.26-1.52.51-2.82.51-3.01,0-5.27-1.9-5.27-5.4s2.26-5.61,5.58-5.61c1.33,0,2.17.28,2.54.47l-.33,1.12c-.52-.26-1.26-.45-2.16-.45-2.5,0-4.16,1.6-4.16,4.41,0,2.62,1.51,4.29,4.1,4.29.84,0,1.7-.18,2.25-.45,0,0,.28,1.1.28,1.1Z"/>
        <path class="st0" d="M56.56,10.31c.03,1.89,1.24,2.66,2.63,2.66,1,0,1.6-.18,2.12-.4l.24,1c-.49.22-1.33.47-2.55.47-2.36,0-3.77-1.56-3.77-3.87s1.37-4.14,3.6-4.14c2.5,0,3.17,2.2,3.17,3.61,0,.28-.04.51-.05.65h-5.39,0ZM60.65,9.31c.01-.88-.37-2.26-1.93-2.26-1.4,0-2.03,1.3-2.13,2.26h4.07-.01Z"/>
        <path class="st0" d="M64.51,8.61c0-.91-.01-1.67-.06-2.39h1.23l.05,1.51h.06c.34-1.03,1.19-1.67,2.12-1.67.15,0,.27.01.4.05v1.32c-.14-.03-.28-.05-.47-.05-.98,0-1.69.74-1.86,1.79-.03.19-.06.41-.06.65v4.09h-1.38v-5.27h-.01Z"/>
        <path class="st0" d="M71.43,6.22l1.51,4.3c.26.7.46,1.33.61,1.97h.05c.18-.64.4-1.26.65-1.97l1.49-4.3h1.46l-3.01,7.66h-1.33l-2.91-7.66h1.49-.01Z"/>
        <path class="st0" d="M83.48,13.88l-.11-.97h-.05c-.42.6-1.25,1.14-2.35,1.14-1.55,0-2.35-1.1-2.35-2.2,0-1.85,1.65-2.87,4.61-2.85v-.15c0-.64-.18-1.78-1.74-1.78-.72,0-1.46.22-1.99.57l-.32-.92c.64-.41,1.56-.68,2.52-.68,2.35,0,2.91,1.6,2.91,3.14v2.87c0,.66.04,1.32.13,1.84h-1.26v-.03ZM83.28,9.97c-1.52-.03-3.24.24-3.24,1.72,0,.91.6,1.33,1.32,1.33,1,0,1.63-.64,1.85-1.28.05-.14.08-.31.08-.45,0,0,0-1.33,0-1.33Z"/>
        <path class="st0" d="M87.66,8.3c0-.79-.01-1.44-.06-2.08h1.24l.08,1.26h.03c.38-.73,1.26-1.44,2.54-1.44,1.06,0,2.71.64,2.71,3.27v4.57h-1.39v-4.42c0-1.24-.46-2.26-1.78-2.26-.92,0-1.63.65-1.86,1.43-.06.18-.09.41-.09.65v4.61h-1.39v-5.59h-.01Z"/>
        <path class="st0" d="M98.87,4.02v2.2h1.99v1.06h-1.99v4.14c0,.95.27,1.49,1.05,1.49.37,0,.64-.05.8-.09l.06,1.05c-.27.11-.7.19-1.24.19-.65,0-1.17-.2-1.51-.59-.4-.41-.54-1.1-.54-1.99v-4.18h-1.19v-1.06h1.19v-1.84l1.37-.37h0Z"/>
        <path class="st0" d="M103.91,10.31c.03,1.89,1.24,2.66,2.63,2.66,1,0,1.6-.18,2.12-.4l.24,1c-.49.22-1.33.47-2.55.47-2.36,0-3.77-1.56-3.77-3.87s1.37-4.14,3.6-4.14c2.5,0,3.17,2.2,3.17,3.61,0,.28-.03.51-.05.65h-5.39ZM107.99,9.31c.01-.88-.37-2.26-1.93-2.26-1.4,0-2.03,1.3-2.13,2.26h4.07-.01Z"/>
        <path class="st0" d="M111.67,12.47c.41.27,1.14.55,1.84.55,1.01,0,1.49-.51,1.49-1.14,0-.66-.4-1.03-1.43-1.4-1.38-.49-2.03-1.25-2.03-2.17,0-1.24,1-2.25,2.64-2.25.78,0,1.46.22,1.89.47l-.34,1.01c-.31-.19-.86-.45-1.57-.45-.83,0-1.28.47-1.28,1.05,0,.64.46.92,1.46,1.3,1.33.51,2.02,1.17,2.02,2.31,0,1.34-1.05,2.3-2.87,2.3-.84,0-1.61-.2-2.16-.52,0,0,.34-1.06.34-1.06Z"/>
        <path class="st0" d="M123.59,6.22l1.69,4.53c.18.51.37,1.11.49,1.57h.04c.14-.46.31-1.05.49-1.6l1.52-4.5h1.47l-2.09,5.47c-1,2.63-1.69,3.97-2.63,4.8-.68.6-1.37.84-1.71.91l-.34-1.17c.34-.11.8-.33,1.23-.68.38-.31.86-.84,1.17-1.56.06-.14.11-.26.11-.33s-.04-.19-.1-.37l-2.84-7.06h1.52Z"/>
        <path class="st0" d="M47.39,22.2v4.46h5.15v-4.46h1.39v10.64h-1.39v-4.99h-5.15v4.99h-1.38v-10.64h1.38Z"/>
        <path class="st0" d="M58.54,29.27c.03,1.88,1.23,2.66,2.62,2.66,1,0,1.6-.18,2.12-.4l.24,1c-.49.22-1.33.47-2.54.47-2.35,0-3.75-1.55-3.75-3.86s1.35-4.13,3.59-4.13c2.49,0,3.15,2.2,3.15,3.6,0,.28-.03.51-.05.65h-5.38ZM62.6,28.28c.01-.88-.36-2.26-1.93-2.26-1.4,0-2.02,1.29-2.13,2.26,0,0,4.06,0,4.06,0Z"/>
        <path class="st0" d="M67.17,27.59c0-.89-.01-1.67-.06-2.39h1.21l.05,1.49h.06c.34-1.02,1.19-1.67,2.12-1.67.15,0,.27.01.4.05v1.32c-.14-.03-.28-.05-.47-.05-.98,0-1.67.74-1.86,1.79-.03.19-.06.41-.06.65v4.07h-1.38s0-5.26,0-5.26Z"/>
        <path class="st0" d="M73.91,27.27c0-.79-.01-1.43-.06-2.07h1.23l.08,1.26h.04c.38-.73,1.26-1.43,2.53-1.43,1.06,0,2.69.63,2.69,3.26v4.56h-1.39v-4.41c0-1.23-.46-2.26-1.76-2.26-.92,0-1.62.65-1.86,1.42-.06.18-.09.41-.09.65v4.6h-1.39v-5.57h0Z"/>
        <path class="st0" d="M88.39,32.84l-.11-.96h-.05c-.42.6-1.25,1.14-2.34,1.14-1.55,0-2.34-1.09-2.34-2.2,0-1.85,1.65-2.86,4.6-2.84v-.15c0-.63-.18-1.76-1.74-1.76-.72,0-1.46.22-1.99.56l-.32-.92c.63-.41,1.55-.68,2.5-.68,2.34,0,2.9,1.6,2.9,3.13v2.86c0,.66.03,1.32.13,1.83h-1.26.03ZM88.18,28.94c-1.52-.03-3.23.24-3.23,1.72,0,.89.6,1.33,1.32,1.33,1,0,1.62-.63,1.85-1.28.05-.14.08-.29.08-.45v-1.33h-.01ZM88.89,21.9l-1.93,2.26h-1l1.39-2.26h1.53Z"/>
        <path class="st0" d="M93.28,27.27c0-.79-.01-1.43-.06-2.07h1.23l.08,1.26h.03c.38-.73,1.26-1.43,2.53-1.43,1.06,0,2.69.63,2.69,3.26v4.56h-1.39v-4.41c0-1.23-.46-2.26-1.76-2.26-.92,0-1.62.65-1.86,1.42-.06.18-.09.41-.09.65v4.6h-1.39v-5.57h.01Z"/>
        <path class="st0" d="M110.14,21.64v9.23c0,.68.01,1.46.06,1.97h-1.25l-.06-1.33h-.04c-.42.86-1.35,1.49-2.61,1.49-1.85,0-3.27-1.56-3.27-3.88-.01-2.54,1.56-4.1,3.42-4.1,1.16,0,1.95.55,2.3,1.16h.04v-4.56h1.4ZM108.75,28.3c0-.18-.01-.41-.06-.59-.2-.88-.96-1.61-2.01-1.61-1.43,0-2.29,1.26-2.29,2.95,0,1.55.75,2.82,2.26,2.82.93,0,1.79-.61,2.03-1.66.05-.19.06-.38.06-.6v-1.33h0Z"/>
        <path class="st0" d="M114.72,29.27c.03,1.88,1.23,2.66,2.62,2.66,1,0,1.6-.18,2.12-.4l.24,1c-.49.22-1.33.47-2.54.47-2.35,0-3.75-1.55-3.75-3.86s1.35-4.13,3.59-4.13c2.49,0,3.15,2.2,3.15,3.6,0,.28-.03.51-.05.65h-5.38ZM118.78,28.28c.01-.88-.36-2.26-1.93-2.26-1.4,0-2.02,1.29-2.13,2.26h4.06Z"/>
        <path class="st0" d="M122.49,32.03l3.46-4.5c.33-.41.65-.78,1-1.19v-.03h-4.14v-1.12h5.82v.87l-3.42,4.43c-.32.42-.63.8-.98,1.2v.03h4.47v1.11h-6.21v-.8Z"/>
        <path class="st0" d="M47.39,41.18v4.47h5.16v-4.47h1.39v10.68h-1.39v-5.01h-5.16v5.01h-1.38v-10.68h1.38Z"/>
        <path class="st0" d="M57.88,48.28c.03,1.89,1.24,2.66,2.63,2.66,1,0,1.6-.18,2.12-.4l.24,1c-.49.22-1.33.47-2.55.47-2.36,0-3.77-1.56-3.77-3.87s1.37-4.14,3.6-4.14c2.5,0,3.17,2.2,3.17,3.61,0,.28-.03.51-.05.65h-5.39ZM61.96,47.28c.01-.88-.37-2.26-1.93-2.26-1.4,0-2.03,1.3-2.13,2.26h4.07-.01Z"/>
        <path class="st0" d="M65.83,46.58c0-.91-.01-1.67-.06-2.39h1.23l.05,1.51h.06c.34-1.03,1.19-1.67,2.12-1.67.15,0,.27.01.4.05v1.32c-.14-.03-.28-.05-.47-.05-.98,0-1.69.74-1.86,1.79-.04.19-.06.41-.06.65v4.09h-1.38v-5.27h-.01Z"/>
        <path class="st0" d="M71.86,46.58c0-.91-.01-1.67-.06-2.39h1.23l.05,1.51h.06c.34-1.03,1.19-1.67,2.12-1.67.15,0,.27.01.4.05v1.32c-.14-.03-.28-.05-.47-.05-.98,0-1.69.74-1.86,1.79-.04.19-.06.41-.06.65v4.09h-1.38v-5.27h-.01Z"/>
        <path class="st0" d="M78.45,48.28c.03,1.89,1.24,2.66,2.63,2.66,1,0,1.6-.18,2.12-.4l.24,1c-.49.22-1.33.47-2.55.47-2.36,0-3.77-1.56-3.77-3.87s1.37-4.14,3.6-4.14c2.5,0,3.17,2.2,3.17,3.61,0,.28-.04.51-.05.65h-5.39ZM82.55,47.28c.01-.88-.37-2.26-1.93-2.26-1.4,0-2.03,1.3-2.13,2.26h4.07-.01Z"/>
        <path class="st0" d="M86.41,46.58c0-.91-.01-1.67-.06-2.39h1.23l.05,1.51h.06c.34-1.03,1.19-1.67,2.12-1.67.15,0,.27.01.4.05v1.32c-.14-.03-.28-.05-.47-.05-.98,0-1.69.74-1.86,1.79-.03.19-.06.41-.06.65v4.09h-1.38v-5.27h-.01Z"/>
        <path class="st0" d="M96.55,51.85l-.11-.97h-.05c-.42.6-1.25,1.14-2.35,1.14-1.55,0-2.35-1.1-2.35-2.2,0-1.85,1.65-2.87,4.61-2.85v-.15c0-.64-.18-1.78-1.74-1.78-.72,0-1.46.22-1.99.57l-.32-.92c.64-.41,1.56-.68,2.52-.68,2.35,0,2.91,1.6,2.91,3.14v2.87c0,.66.04,1.32.13,1.84h-1.26v-.03ZM96.34,47.94c-1.52-.03-3.24.24-3.24,1.72,0,.91.6,1.33,1.32,1.33,1,0,1.63-.64,1.85-1.28.05-.14.08-.31.08-.45,0,0,0-1.33,0-1.33Z"/>
      </g>
    </g>
  </g>
</svg>