<svg xmlns="http://www.w3.org/2000/svg" viewBox="0 0 16 16" role="img" aria-label="WhatsApp">
  <path fill="#000" d="M13.601 2.326A7.854 7.854 0 0 0 8.004 0C3.58 0 0 3.582 0 8.003a7.95 7.95 0 0 0 1.076 3.987L0 16l4.113-1.073a7.95 7.95 0 0 0 3.89 1.019h.004C12.42 15.946 16 12.365 16 7.943a7.855 7.855 0 0 0-2.399-5.617ZM8.007 14.59h-.003a6.6 6.6 0 0 1-3.36-.92l-.24-.142-2.44.636.65-2.381-.156-.245A6.6 6.6 0 0 1 1.41 8.003c0-3.64 2.958-6.598 6.594-6.598a6.55 6.55 0 0 1 4.67 1.94 6.55 6.55 0 0 1 1.93 4.664c0 3.64-2.959 6.581-6.597 6.581Zm3.611-4.93c-.197-.098-1.164-.573-1.344-.638-.18-.065-.312-.098-.443.099-.131.196-.508.638-.623.769-.114.131-.229.147-.426.049-.196-.098-.83-.306-1.581-.975-.585-.521-.98-1.164-1.098-1.361-.114-.196-.012-.302.086-.4.088-.088.197-.23.295-.345.098-.114.131-.196.197-.327.065-.131.033-.245-.016-.344-.049-.098-.442-1.065-.607-1.459-.16-.384-.325-.332-.442-.338-.114-.006-.245-.007-.376-.007-.131 0-.344.049-.525.246-.18.196-.688.671-.688 1.639 0 .967.704 1.901.802 2.032.098.131 1.385 2.116 3.352 2.966.468.202.833.323 1.118.413.47.149.897.128 1.235.077.377-.056 1.164-.476 1.328-.935.163-.459.163-.852.114-.934-.049-.082-.18-.131-.377-.229Z"/>
</svg>
